<?xml version="1.0" ?><svg id="Icons" style="enable-background:new 0 0 32 32;" version="1.1" viewBox="0 0 32 32" xml:space="preserve" xmlns="http://www.w3.org/2000/svg" xmlns:xlink="http://www.w3.org/1999/xlink"><path class="st1" d="M10,18V7c0-1.1,0.9-2,2-2h0c1.1,0,2,0.9,2,2v8"/><path class="st1" d="M14,15v-1c0-1.1,0.9-2,2-2h0c1.1,0,2,0.9,2,2v1"/><path class="st1" d="M18,15v-1c0-1.1,0.9-2,2-2h0c1.1,0,2,0.9,2,2v1"/><path class="st1" d="M22,15V9c0-1.1,0.9-2,2-2h0c1.1,0,2,0.9,2,2v11"/><path class="st1" d="M10,16v4.6c0,0,0,0,0,0l-1.5-1.8c-0.8-0.9-2.2-1-3.1-0.1l0,0c-0.8,0.8-0.8,2-0.1,2.9l3.2,3.6  c1.6,1.9,4,2.9,6.4,2.9h2.5H18h0.6c4.1,0,7.4-3.3,7.4-7.4V16"/></svg>